<?xml version="1.0" encoding="UTF-8" standalone="no"?> <!-- Created with Vectornator for iOS (http://vectornator.io/) --><!DOCTYPE svg PUBLIC "-//W3C//DTD SVG 1.1//EN" "http://www.w3.org/Graphics/SVG/1.1/DTD/svg11.dtd">
<svg height="100%" style="fill-rule:nonzero;clip-rule:evenodd;stroke-linecap:round;stroke-linejoin:round;" version="1.1" viewBox="0 0 1024 1024" width="100%" xml:space="preserve" xmlns="http://www.w3.org/2000/svg" xmlns:vectornator="http://vectornator.io" xmlns:xlink="http://www.w3.org/1999/xlink">
<metadata>
<vectornator:setting key="IsTimeLapseWatermarkDisabled" value="false"/>
<vectornator:setting key="UndoHistoryDisabled" value="true"/>
<vectornator:setting key="VNDimensionsVisible" value="true"/>
<vectornator:setting key="VNSnapToGuides" value="true"/>
<vectornator:setting key="WDCMYKEnabledKey" value="false"/>
<vectornator:setting key="WDDisplayWhiteBackground" value="false"/>
<vectornator:setting key="WDDynamicGuides" value="false"/>
<vectornator:setting key="WDGuidesVisible" value="true"/>
<vectornator:setting key="WDIsolateActiveLayer" value="false"/>
<vectornator:setting key="WDOutlineMode" value="false"/>
<vectornator:setting key="WDRulersVisible" value="true"/>
<vectornator:setting key="WDSnapToEdges" value="false"/>
<vectornator:setting key="WDSnapToGrid" value="false"/>
<vectornator:setting key="WDSnapToPoints" value="false"/>
<vectornator:setting key="WDUnits" value="Pixels"/>
</metadata>
<defs/>
<g id="Layer 1" vectornator:layerName="Layer 1">
<g opacity="1">
<path d="M623.612 603.815C469.453 697.282 405.643 524.624 531.493 431.795" fill="#ffec00" opacity="1"/>
<path d="M531.5 431.781C513.464 436.826 496.136 444.24 480.375 454.406C465.001 464.323 451.594 476.518 440 490.688C426.168 507.593 415.481 526.909 409.5 547.969C406.14 559.799 404.319 571.997 403.875 584.281C403.435 596.456 404.181 608.59 406.688 620.531C410.531 638.84 418.025 655.79 428 671.562C433.452 680.182 439.796 688.253 446.844 695.625C450.131 699.063 453.591 702.288 457.125 705.469C463.528 711.232 470.173 716.641 477.25 721.562C479.331 723.01 481.425 724.438 483.594 725.75C486.831 727.709 490.234 729.364 493.656 730.969C494.793 731.502 495.944 732.027 497.094 732.531C498.244 733.036 499.371 733.602 500.562 734C501.771 734.404 503.013 734.634 504.25 734.938C506.579 735.509 509.181 736.08 511.531 736.562C512.779 736.819 514.04 737.026 515.281 737.312C517.729 737.877 520.133 738.644 522.562 739.281C525.038 739.931 527.524 740.446 530 741.094C535.073 742.421 540.048 744.148 545.125 745.469C548.989 746.473 552.899 747.367 556.812 748.156C558.148 748.426 559.466 748.696 560.812 748.906C563.414 749.313 566.062 749.549 568.688 749.75C571.352 749.954 574.016 750.149 576.688 750.219C582.653 750.374 588.673 750.08 594.625 749.656C597.942 749.42 601.296 749.248 604.594 748.812C606.605 748.547 608.594 748.183 610.594 747.844C617.194 746.725 623.768 745.392 630.281 743.844C638.186 741.965 646.175 739.948 653.875 737.344C663.71 734.017 673.349 730.064 682.844 725.875C686.513 724.256 690.11 722.412 693.812 720.875C758.467 682.107 779.455 598.28 740.688 533.625C701.92 468.97 618.061 447.982 553.406 486.75C551.551 488.271 549.985 490.187 548.375 491.969C547.07 493.414 545.612 494.749 544.406 496.281C543.196 497.82 542.251 499.564 541.281 501.25C540.554 502.513 539.958 503.817 539.781 505.281C539.732 505.69 539.854 506.095 539.844 506.5C539.843 506.511 539.737 507.134 539.75 507.156C539.828 507.287 540.095 507.257 540.125 507.406C540.17 507.634 539.96 507.863 539.938 508.094C539.892 508.555 540.021 509.017 540.125 509.469C540.628 511.647 541.224 513.813 541.812 515.969C542.185 517.332 542.441 518.722 542.906 520.062C543.065 520.521 543.334 520.916 543.562 521.344C543.666 521.538 544.01 522.383 544.188 522.562C544.593 522.973 545.695 523.203 546.062 523.625C546.244 523.833 546.293 524.124 546.406 524.375C547.233 526.208 547.974 527.942 548.344 529.938C549.345 535.337 550.194 540.932 549 546.375C548.703 547.728 548.145 548.991 547.594 550.25C546.586 552.554 544.964 554.807 542.75 556.094C541.567 556.781 540.324 557.369 538.969 557.625C529.234 559.465 521.435 551.833 516.562 544.312C515.699 542.979 514.89 541.597 514.156 540.188C513.162 538.279 512.312 536.316 511.531 534.312C510.513 531.702 509.665 529.026 508.969 526.312C506.52 516.765 506.413 506.889 507.344 497.125C509.576 473.701 519.073 451.54 531.5 431.781Z" fill="#00baff" opacity="1"/>
</g>
<g opacity="1">
<path d="M499.646 139.996C302.906 131.844 44.0288 572.023 126.986 761.675C201.757 932.613 553.331 960.873 710.239 948C1179.1 909.532 985.64 35.1892 570.095-0.116486" fill="#ffec00" opacity="1"/>
<path d="M570.094-0.125C589.176 2.56037 607.973 6.87091 626.25 13C637.232 16.6829 647.986 20.9837 658.5 25.8438C725.876 56.9883 780.419 109.938 822.781 170.094C830.33 180.814 837.516 191.831 844.281 203.062C852.357 216.47 860.014 230.132 867.094 244.094C875.324 260.323 882.892 276.854 889.875 293.656C898.944 315.477 906.744 337.815 913.656 360.406C918.127 375.019 922.114 389.808 925.594 404.688C929.325 420.642 932.665 436.703 935.312 452.875C941.897 493.086 945.56 533.976 944.469 574.75C944.05 590.395 943.069 605.963 941.469 621.531C940.149 634.372 938.263 647.19 935.875 659.875C934.125 669.17 932.072 678.401 929.719 687.562C915.807 741.731 890.352 795.277 847.156 832.156C840.467 837.868 833.395 843.141 826 847.906C814.228 855.492 801.637 861.816 788.531 866.75C769.185 874.033 748.707 878.467 728.125 880.281C718.483 881.131 708.8 881.409 699.125 881.469C689.17 881.53 679.231 881.348 669.281 881.031C641.498 880.147 613.746 878.072 586.125 874.969C543.314 870.159 500.637 863.254 458.719 853.25C450.771 851.353 442.84 849.389 434.938 847.312C427.336 845.315 419.793 843.089 412.281 840.781C401.612 837.503 390.975 834.116 380.469 830.344C370.287 826.688 360.162 822.882 350.188 818.688C320.65 806.267 291.602 791.608 266.688 771.219C257.926 764.049 249.791 756.156 242.75 747.281C239.146 742.739 235.616 738.173 232.781 733.094C231.375 730.574 230.215 728 229.031 725.375C228.716 724.676 228.308 724 227.969 723.312C227.204 721.759 226.504 720.176 225.875 718.562C224.32 714.571 223.191 710.34 222.438 706.125C221.993 703.637 221.9 701.05 221.75 698.531C221.421 692.999 221.386 687.475 221.625 681.938C221.727 679.57 221.807 677.17 222.062 674.812C222.995 666.213 224.664 657.626 226.594 649.219C226.972 647.571 227.299 645.927 227.688 644.281C228.225 642 228.852 639.74 229.438 637.469C232.447 625.797 235.942 614.262 240 602.906C241.843 597.748 243.564 592.535 245.406 587.375C247.879 580.448 250.584 573.599 253.344 566.781C262.171 544.972 272.008 523.586 282.875 502.719C288.157 492.577 293.829 482.676 299.5 472.75C314.932 445.74 331.985 419.586 350.938 394.906C363.281 378.833 376.259 363.264 390.219 348.562C401.002 337.206 412.217 326.15 424.125 315.969C435.394 306.334 447.144 297.224 459.844 289.531C467.462 284.916 475.463 280.746 483.938 277.938C486.313 277.15 488.738 276.498 491.219 276.156C492.187 276.023 493.222 275.863 494.188 276.062C494.267 276.079 494.183 276.184 494.188 276.188C494.199 276.197 494.368 276.215 494.375 276.25C494.378 276.263 494.106 276.31 494.094 276.312C494.054 276.322 493.928 276.34 493.969 276.344C494.481 276.384 494.987 276.412 495.5 276.438C570.852 278.72 633.811 219.477 636.094 144.125C638.376 68.7727 579.134 5.84503 503.781 3.5625C498.011 3.49835 492.237 3.46545 486.469 3.6875C472.296 4.23306 458.179 5.86358 444.25 8.53125C370.129 22.7268 304.476 64.8111 249.625 115.281C238.637 125.391 228.043 135.936 217.781 146.781C204.437 160.885 191.861 175.732 179.719 190.875C156.683 219.603 135.691 249.935 116.438 281.312C106.75 297.101 97.5491 313.215 88.7812 329.531C83.9001 338.615 79.1565 347.768 74.625 357.031C62.9267 380.945 52.4207 405.493 42.9688 430.375C37.4188 444.985 32.1749 459.762 27.5312 474.688C24.0837 485.768 20.9842 496.958 18.0625 508.188C15.5473 517.855 13.1112 527.559 11.0938 537.344C10.2282 541.542 9.50895 545.782 8.75 550C6.55863 562.179 4.72191 574.432 3.25 586.719C0.906119 606.284-0.410122 625.948-0.5625 645.656C-0.636052 655.169-0.339791 664.655 0.09375 674.156C0.606657 685.396 1.2633 696.599 2.5625 707.781C4.27383 722.511 6.94315 737.062 10.4375 751.469C12.7367 760.948 15.2285 770.366 18.3125 779.625C23.1745 794.223 29.2675 808.389 36.5 821.969C38.7081 826.115 40.992 830.257 43.4688 834.25C49.5577 844.066 56.5191 853.421 63.8438 862.344C74.212 874.974 85.5827 886.914 97.9062 897.656C106.629 905.259 115.843 912.324 125.312 918.969C146.111 933.563 168.397 946.009 191.469 956.625C226.714 972.842 263.637 984.991 301.219 994.469C318.777 998.896 336.519 1002.69 354.344 1005.88C369.095 1008.51 383.904 1010.75 398.75 1012.78C444.901 1019.09 491.46 1022.65 538.031 1023.59C578.099 1024.4 618.186 1023.54 658.156 1020.56C672.286 1019.51 686.398 1018.19 700.469 1016.53C722.327 1013.95 744.041 1010.46 765.375 1004.97C790.923 998.397 815.809 989.191 839.281 977.125C861.345 965.783 882.098 951.899 900.906 935.719C918.087 920.939 933.589 904.251 947.188 886.125C954.569 876.287 961.379 866 967.625 855.406C1008.73 785.681 1023.88 703.965 1023.66 623.812C1023.61 606.632 1022.73 589.463 1021.31 572.344C1017.6 527.368 1009.28 482.837 997.562 439.281C987.676 402.531 974.874 366.606 959.844 331.656C933.374 270.107 898.704 211.886 856.156 160.094C847.064 149.026 837.472 138.368 827.594 128C772.723 70.4107 703.2 23.7437 624.656 6.71875C606.696 2.82565 588.451 0.60436 570.094-0.125Z" fill="#00baff" opacity="1"/>
</g>
<g opacity="1">
<path d="M644.505 623.952C490.346 717.418 426.536 544.76 552.386 451.932" fill="#ffec00" opacity="1"/>
<path d="M552.375 451.938C534.339 456.982 517.042 464.365 501.281 474.531C485.907 484.448 472.469 496.643 460.875 510.812C447.043 527.718 436.357 547.065 430.375 568.125C427.015 579.956 425.194 592.153 424.75 604.438C424.31 616.612 425.087 628.746 427.594 640.688C431.437 658.996 438.931 675.916 448.906 691.688C454.358 700.307 460.671 708.377 467.719 715.75C471.006 719.188 474.467 722.445 478 725.625C484.403 731.388 491.048 736.766 498.125 741.688C500.206 743.135 502.3 744.563 504.469 745.875C507.706 747.834 511.14 749.489 514.562 751.094C515.7 751.627 516.819 752.152 517.969 752.656C519.119 753.161 520.246 753.727 521.438 754.125C522.646 754.529 523.919 754.759 525.156 755.062C527.486 755.634 530.056 756.237 532.406 756.719C533.654 756.975 534.915 757.151 536.156 757.438C538.604 758.002 541.008 758.769 543.438 759.406C545.913 760.056 548.43 760.571 550.906 761.219C555.979 762.546 560.923 764.305 566 765.625C569.864 766.63 573.774 767.492 577.688 768.281C579.023 768.551 580.372 768.852 581.719 769.062C584.321 769.47 586.937 769.674 589.562 769.875C592.227 770.079 594.891 770.274 597.562 770.344C603.528 770.499 609.548 770.237 615.5 769.812C618.817 769.576 622.171 769.373 625.469 768.938C627.48 768.672 629.501 768.307 631.5 767.969C638.1 766.85 644.643 765.517 651.156 763.969C659.061 762.09 667.082 760.073 674.781 757.469C684.616 754.142 694.255 750.189 703.75 746C707.419 744.381 710.985 742.568 714.688 741.031C779.342 702.264 800.33 618.405 761.562 553.75C722.795 489.095 638.967 468.107 574.312 506.875C572.457 508.396 570.891 510.312 569.281 512.094C567.976 513.539 566.518 514.906 565.312 516.438C564.102 517.976 563.157 519.689 562.188 521.375C561.461 522.638 560.833 523.942 560.656 525.406C560.607 525.815 560.76 526.22 560.75 526.625C560.75 526.636 560.643 527.259 560.656 527.281C560.734 527.412 561.002 527.413 561.031 527.562C561.076 527.79 560.867 527.988 560.844 528.219C560.798 528.68 560.927 529.142 561.031 529.594C561.534 531.772 562.13 533.938 562.719 536.094C563.091 537.457 563.316 538.847 563.781 540.188C563.94 540.646 564.241 541.041 564.469 541.469C564.572 541.663 564.917 542.508 565.094 542.688C565.499 543.098 566.601 543.328 566.969 543.75C567.15 543.958 567.199 544.249 567.312 544.5C568.139 546.333 568.88 548.067 569.25 550.062C570.251 555.462 571.1 561.057 569.906 566.5C569.609 567.853 569.051 569.147 568.5 570.406C567.492 572.71 565.839 574.932 563.625 576.219C562.442 576.906 561.199 577.494 559.844 577.75C550.109 579.59 542.31 571.99 537.438 564.469C536.574 563.135 535.796 561.753 535.062 560.344C534.069 558.435 533.187 556.441 532.406 554.438C531.388 551.827 530.571 549.182 529.875 546.469C527.426 536.921 527.319 527.045 528.25 517.281C530.482 493.858 539.948 471.697 552.375 451.938Z" fill="#00baff" opacity="1"/>
</g>
</g>
</svg>
